<svg width="268px" height="34px" viewBox="0 0 268 34" version="1.1" xmlns="http://www.w3.org/2000/svg" xmlns:xlink="http://www.w3.org/1999/xlink">
    <g id="Wireframes" stroke="none" stroke-width="1" fill="none" fill-rule="evenodd">
        <g id="Home-Landing" transform="translate(-191.000000, -433.000000)" fill="#333">
            <g id="Black_Frame_Logo" transform="translate(191.000000, 433.000000)">
                <path d="M32.2911171,31.9924545 L33.1745738,31.9924545 L44.8455017,31.9924545 L44.8455017,33.6012727 C44.8455017,33.6012727 34.3866144,33.4869091 30.8620872,33.4869091 C29.6810451,33.4869091 26.0495731,33.6012727 26.0495731,33.6012727 L26.0495731,1.45736364 C26.0495731,1.45736364 27.8412853,1.57945455 28.438006,1.57945455 C29.0362767,1.57945455 30.8326386,1.45736364 30.8326386,1.45736364 L30.8326386,32.0913636 C30.8326386,32.0913636 31.7129955,31.9924545 32.2911171,31.9924545" id="Fill-1"></path>
                <path d="M239.181176,5.12009091 L226.949175,33.6074545 L226.65779,33.6074545 L213.095954,4.86509091 L213.095954,33.6151818 C213.095954,33.6151818 212.494584,33.4946364 212.303943,33.4946364 C212.127252,33.4946364 211.597178,33.6151818 211.597178,33.6151818 L211.597178,1.40636364 C211.597178,1.40636364 213.399739,1.52536364 214.00111,1.52536364 C214.597831,1.52536364 216.398842,1.40636364 216.398842,1.40636364 L228.375105,26.6405455 L239.181176,1.40636364 C239.181176,1.40636364 240.977538,1.52536364 241.578908,1.52536364 C242.181829,1.52536364 243.98904,1.40636364 243.98904,1.40636364 L243.98904,33.5935455 C243.98904,33.5935455 242.181829,33.4312727 241.578908,33.4312727 C240.977538,33.4312727 239.181176,33.5935455 239.181176,33.5935455 L239.181176,5.12009091" id="Fill-2"></path>
                <path d="M11.2338493,17.0525455 C17.5420401,17.0525455 18.3929484,20.6179091 18.3929484,24.616 C18.3929484,29.7237273 15.9084202,31.9924545 10.3441929,31.9924545 L5.29144062,31.9924545 L5.29144062,17.0525455 L11.2338493,17.0525455 Z M13.6920288,16.1994545 C16.8523239,15.878 21.3471036,14.4778182 21.3471036,9.554 C21.3471036,3.70445455 17.1793579,1.46354545 8.32154209,1.46354545 C8.32154209,1.46354545 6.05710309,1.51454545 5.29144062,1.51454545 C3.96935543,1.51454545 0,1.46354545 0,1.46354545 L0,33.6074545 C0,33.6074545 3.96935543,33.4869091 5.29144062,33.4869091 C7.26449391,33.4869091 13.1898535,33.6074545 13.1898535,33.6074545 C19.1012637,33.6074545 23.4364012,30.5304545 23.4364012,24.9807273 C23.4364012,18.5655455 17.3064517,16.1685455 13.6920288,16.1994545 Z M5.29144062,15.4978182 L5.29144062,3.026 L7.84881526,3.026 C15.2171541,3.026 16.585737,5.28545455 16.585737,9.62354545 C16.585737,13.2692727 15.6836812,15.4978182 10.5890809,15.4978182 L5.29144062,15.4978182 L5.29144062,15.4978182 Z" id="Fill-3"></path>
                <path d="M104.390483,1.58409091 C103.790662,1.58409091 101.99585,1.46354545 101.99585,1.46354545 L101.99585,33.6074545 C101.99585,33.6074545 103.790662,33.4451818 104.390483,33.4451818 C104.988754,33.4451818 106.782016,33.6074545 106.782016,33.6074545 L106.782016,1.46354545 C106.782016,1.46354545 104.988754,1.58409091 104.390483,1.58409091" id="Fill-4"></path>
                <path d="M110.537482,15.9197273 L123.83273,1.46354545 C123.83273,1.46354545 123.028319,1.58409091 122.771032,1.58409091 C122.501345,1.58409091 121.700034,1.46354545 121.700034,1.46354545 L106.868811,17.4342727 L118.835775,33.6074545 C118.835775,33.6074545 120.633687,33.4451818 121.236607,33.4451818 C121.841078,33.4451818 123.63124,33.6074545 123.63124,33.6074545 L110.537482,15.9197273" id="Fill-5"></path>
                <path d="M98.3256302,7.71954545 C98.4868223,7.63145455 98.9951974,7.45218182 98.9951974,7.45218182 C98.4775228,6.43836364 97.8544533,5.51418182 97.1337386,4.70127273 C96.413024,3.90227273 95.5900143,3.20372727 94.7003579,2.63809091 C93.8029519,2.074 92.8233999,1.63045455 91.7942504,1.33218182 L91.7880507,1.33218182 C90.5651606,0.933454545 89.2539249,0.681545455 87.8915417,0.667636364 C85.3605158,0.633636364 82.8883869,0.933454545 80.7804903,1.79736364 C78.8399854,2.59172727 77.0637724,3.74927273 75.6099437,5.22518182 C74.1514652,6.72581818 73.0758179,8.60663636 72.2683075,10.71 C71.4576972,12.7855455 71.0671164,15.2350909 71.0361179,17.7789091 C71.0051194,19.9672727 71.4049998,22.0582727 72.1675625,23.9885455 C72.9409745,25.9296364 74.0724191,27.6775455 75.501449,29.1441818 C76.9630274,30.6664545 78.7221912,31.8703636 80.6967944,32.7049091 C82.5660027,33.4946364 84.6041528,33.9350909 86.7600971,33.9907273 C86.7600971,33.9907273 91.3850704,34.2148182 94.7360062,32.4251818 C95.0382414,32.2613636 95.9712956,31.7606364 96.5215187,31.4113636 C97.0515927,31.0636364 97.8451538,30.5273636 98.655764,29.9153636 C98.655764,29.9153636 98.2264351,29.4671818 98.1086409,29.3203636 C98.0001462,29.1704545 97.7335592,28.7269091 97.7335592,28.7269091 C96.7555572,29.4857273 95.8023539,30.1379091 94.9002981,30.6664545 C94.3578247,30.9786364 93.4914172,31.3557273 92.474667,31.7250909 C91.3184237,32.13 90.1280821,32.3494545 88.9547896,32.3695455 L88.844745,32.3695455 C88.0124358,32.3571818 87.088681,32.2366364 86.0843303,32.0048182 C85.2582208,31.8209091 83.886538,31.4561818 82.9906819,30.9121818 C80.4333073,29.359 77.8511339,25.8724545 77.1087202,21.5946364 C76.7909858,19.7509091 76.6886908,17.867 76.7847861,16.0232727 C76.9630274,12.9261818 77.5659478,10.2726364 78.5764983,8.13527273 C80.0086281,5.14018182 82.7302947,3.23927273 85.3093683,2.618 C86.0936298,2.43254545 87.4467135,2.33981818 88.2759228,2.31972727 L88.354969,2.31972727 C92.5506133,2.40472727 95.7651557,4.41227273 97.6607128,8.15072727 C97.6607128,8.15072727 98.165988,7.80609091 98.3256302,7.71954545" id="Fill-7"></path>
                <path d="M177.653842,26.0254545 C176.434051,24.1353636 172.813429,18.0988182 172.813429,18.0988182 C176.297658,17.5687273 181.35041,15.6539091 181.35041,10.7749091 C181.35041,4.04754545 177.046271,1.47281818 166.841572,1.47281818 C166.841572,1.47281818 164.918116,1.51454545 164.555434,1.51454545 C163.354243,1.51454545 159.772368,1.44036364 159.772368,1.44036364 L159.769268,33.6028182 C159.769268,33.6028182 161.56408,33.4312727 162.167001,33.4312727 C162.754422,33.4312727 164.564733,33.6028182 164.564733,33.6028182 L164.564733,18.4836364 C164.564733,18.4836364 165.832571,18.4480909 166.25415,18.4480909 C166.698979,18.4480909 168.055162,18.4836364 168.055162,18.4836364 C168.055162,18.4836364 171.953221,24.1446364 173.185411,26.0254545 C174.4145,27.9062727 177.971576,33.6151818 177.971576,33.6151818 C177.971576,33.6151818 179.709041,33.4312727 180.305762,33.4312727 C180.896283,33.4312727 182.706594,33.6151818 182.706594,33.6151818 C182.706594,33.6151818 178.882931,27.9062727 177.653842,26.0254545 Z M164.567833,16.9938182 L164.567833,2.93790909 L166.144106,2.93790909 C174.614441,2.93790909 176.516197,5.54972727 176.516197,10.4395455 C176.516197,14.5473636 175.325856,16.9938182 169.456293,16.9938182 L164.567833,16.9938182 L164.567833,16.9938182 Z" id="Fill-9"></path>
                <path d="M252.040895,2.89309091 L252.040895,16.9412727 C252.040895,16.9412727 254.956302,17.0139091 255.759163,17.0139091 C257.992604,17.0139091 264.223298,16.9412727 264.223298,16.9412727 C264.223298,16.9412727 264.1799,17.4976364 264.1799,17.6923636 C264.1799,17.8731818 264.223298,18.4388182 264.223298,18.4388182 C264.223298,18.4388182 257.992604,18.3569091 255.759163,18.3569091 C254.956302,18.3569091 252.040895,18.4388182 252.040895,18.4388182 L252.040895,32.0573636 C252.040895,32.0573636 254.854007,32.1377273 255.677017,32.1377273 C258.655971,32.1377273 267.210002,32.0573636 267.210002,32.0573636 C267.210002,32.0573636 267.168154,32.6152727 267.168154,32.8053636 C267.168154,32.9892727 267.210002,33.6012727 267.210002,33.6012727 C267.210002,33.6012727 256.21949,33.4869091 252.55857,33.4869091 C251.233385,33.4869091 247.25783,33.6012727 247.25783,33.6012727 L247.25783,1.394 C247.25783,1.394 251.233385,1.52227273 252.55857,1.52227273 C256.724766,1.52227273 256.724766,1.513 267.210002,1.394 C267.210002,1.394 267.168154,1.96118182 267.168154,2.14509091 C267.168154,2.33672727 267.210002,2.89309091 267.210002,2.89309091 C267.210002,2.89309091 258.767566,2.81272727 255.791711,2.81272727 C254.968702,2.81272727 251.995948,2.89309091 251.995948,2.89309091" id="Fill-10"></path>
                <path d="M141.388719,2.89309091 L141.388719,16.9412727 C141.388719,16.9412727 143.819,17.0139091 144.628061,17.0139091 C146.858401,17.0139091 153.566472,16.9412727 153.566472,16.9412727 C153.566472,16.9412727 153.524624,17.4976364 153.524624,17.6923636 C153.524624,17.8731818 153.566472,18.4388182 153.566472,18.4388182 C153.566472,18.4388182 146.858401,18.3569091 144.628061,18.3569091 C143.819,18.3569091 141.388719,18.4388182 141.388719,18.4388182 L141.388719,33.6074545 C141.388719,33.6074545 139.595457,33.4451818 138.987887,33.4451818 C138.391166,33.4451818 136.596354,33.6074545 136.596354,33.6074545 L136.596354,1.394 C136.596354,1.394 140.570359,1.52227273 141.897094,1.52227273 C145.562665,1.52227273 156.545426,1.394 156.545426,1.394 C156.545426,1.394 156.506678,1.96118182 156.506678,2.14509091 C156.506678,2.33672727 156.545426,2.89309091 156.545426,2.89309091 C156.545426,2.89309091 147.608564,2.81272727 144.628061,2.81272727 C143.803501,2.81272727 141.345321,2.89309091 141.345321,2.89309091" id="Fill-11"></path>
                <path d="M60.8097192,1.45736364 C60.8097192,1.45736364 59.427187,1.57945455 59.0660547,1.57945455 C58.712672,1.57945455 57.4200354,1.46354545 57.4200354,1.46354545 L46.8821019,33.6151818 C46.8821019,33.6151818 47.1362894,33.5332727 47.7392099,33.5332727 C48.4072271,33.5332727 48.6102672,33.6151818 48.6102672,33.6151818 L51.61402,24.4769091 L65.0177629,24.4769091 L68.6027372,33.6074545 L68.6414853,33.6074545 C68.6414853,33.6074545 70.0007687,33.4451818 71.0299182,33.4451818 C72.0993658,33.4451818 73.4338504,33.6074545 73.4338504,33.6074545 L60.8097192,1.45736364 Z M52.1254949,22.865 L57.6618235,5.92527273 L64.343546,22.865 L52.1254949,22.865 L52.1254949,22.865 Z" id="Fill-12"></path>
                <path d="M197.812154,1.45736364 C197.812154,1.45736364 196.431171,1.57945455 196.071589,1.57945455 C195.716656,1.57945455 194.42092,1.46354545 194.42092,1.46354545 L183.887636,33.6151818 C183.887636,33.6151818 184.141824,33.5332727 184.743194,33.5332727 C185.412761,33.5332727 185.615801,33.6151818 185.615801,33.6151818 L188.618004,24.4769091 L202.023297,24.4769091 L205.606721,33.6074545 L205.647019,33.6074545 C205.647019,33.6074545 207.006303,33.4451818 208.035452,33.4451818 C209.10335,33.4451818 210.437835,33.6074545 210.437835,33.6074545 L197.812154,1.45736364 Z M189.129479,22.865 L194.667358,5.92527273 L201.34753,22.865 L189.129479,22.865 L189.129479,22.865 Z" id="Fill-13"></path>
            </g>
        </g>
    </g>
</svg>
